<?xml version="1.0" encoding="iso-8859-1"?>
<!-- Generator: Adobe Illustrator 18.0.0, SVG Export Plug-In . SVG Version: 6.00 Build 0)  -->
<!DOCTYPE svg PUBLIC "-//W3C//DTD SVG 1.1//EN" "http://www.w3.org/Graphics/SVG/1.1/DTD/svg11.dtd">
<svg version="1.1" id="Capa_1" xmlns="http://www.w3.org/2000/svg" xmlns:xlink="http://www.w3.org/1999/xlink" x="0px" y="0px"
	 viewBox="0 0 188.079 188.079" style="enable-background:new 0 0 188.079 188.079;" xml:space="preserve">
<path d="M177.274,96.588l-0.028,0.001V94.5c0-8.284-6.716-15-15-15s-15,6.716-15,15V78c0-8.284-6.716-15-15-15s-15,6.716-15,15V63
	c0-8.284-7.216-15-15.5-15s-15.464,7.216-15.464,15.5L86.246,15c0-8.284-6.716-15-15-15s-15,6.716-15,15v97.25
	c0,0-15.346-46.083-36.937-35.104c-7.548,3.838-10.705,12.947-6.953,20.54l27.911,56.484c0,0,17.252,33.909,47.339,33.909h40
	c27.614,0,49.699-22.386,49.699-50L177.274,96.588z"/>
<g>
</g>
<g>
</g>
<g>
</g>
<g>
</g>
<g>
</g>
<g>
</g>
<g>
</g>
<g>
</g>
<g>
</g>
<g>
</g>
<g>
</g>
<g>
</g>
<g>
</g>
<g>
</g>
<g>
</g>
</svg>
