<svg width="3191" height="1063" viewBox="0 0 3191 1063" fill="none" xmlns="http://www.w3.org/2000/svg">
<path d="M7.37369 998.515C98.1737 998.515 188.873 998.515 279.673 998.515C370.973 998.515 464.873 1006.71 552.173 975.015C642.373 942.315 721.874 872.815 766.474 787.815C810.974 700.415 822.273 605.315 799.673 509.915C795.973 495.315 791.574 481.115 786.374 467.215C784.174 461.515 778.774 457.715 772.574 457.715H682.274C678.074 457.715 675.274 462.215 677.274 466.015C741.574 586.315 712.374 735.715 612.074 826.715C560.674 871.815 494.274 898.415 423.774 899.815H76.3737C68.6737 899.815 61.4736 903.615 57.0736 909.815L1.57364 987.715C1.17364 988.215 0.87349 988.815 0.67349 989.415C-0.92651 993.715 2.17349 998.815 7.17349 998.815L7.37369 998.515Z" fill="#6839E8"/>
<path d="M1218.57 259.314C1175.57 252.314 1134.97 245.814 1134.97 214.114C1134.97 182.414 1149.67 177.014 1190.87 177.014C1232.07 177.014 1255.77 195.714 1260.77 228.414L1261.27 231.714H1348.57L1348.07 227.414C1338.97 153.214 1283.57 112.414 1192.07 112.414C1100.57 112.414 1045.67 153.014 1045.67 221.114C1045.67 289.214 1108.67 310.414 1178.87 321.614H1179.27C1231.27 330.014 1265.57 335.514 1265.57 366.814C1265.57 398.114 1241.87 405.814 1202.07 405.814C1162.27 405.814 1130.87 386.814 1126.37 350.814L1125.97 347.414H1038.67L1038.97 351.614C1044.77 427.214 1104.47 470.614 1202.67 470.614C1300.87 470.614 1354.77 431.214 1354.77 362.514C1354.77 293.814 1279.17 269.214 1218.37 259.414L1218.57 259.314Z" fill="white"/>
<path d="M1557.87 470.415C1663.87 470.415 1735.07 398.415 1735.07 291.315C1735.07 184.215 1663.87 112.215 1557.87 112.215C1451.87 112.215 1380.07 184.215 1380.07 291.315C1380.07 398.415 1451.57 470.415 1557.87 470.415ZM1557.87 184.515C1612.57 184.515 1646.47 225.415 1646.47 291.315C1646.47 357.215 1612.47 398.115 1557.87 398.115C1503.27 398.115 1469.27 357.215 1469.27 291.315C1469.27 225.415 1503.27 184.515 1557.87 184.515Z" fill="white"/>
<path d="M1861.37 0.414062H1774.67V462.314H1861.37V0.414062Z" fill="white"/>
<path d="M2017.17 272.513C1935.47 287.413 1899.07 319.013 1899.07 374.913C1899.07 430.813 1942.07 470.413 2014.07 470.413C2086.07 470.413 2118.87 447.513 2140.97 412.013L2142.87 462.312H2223.97V254.913C2223.97 164.213 2166.67 112.312 2066.87 112.312C1967.07 112.312 1912.87 158.813 1903.87 240.013L1903.37 244.312H1991.97L1992.47 241.013C1998.67 200.213 2023.47 179.612 2066.17 179.612C2108.87 179.612 2137.77 203.312 2137.77 248.112V250.612L2017.07 272.613L2017.17 272.513ZM2137.87 317.113C2137.87 369.313 2100.77 404.413 2045.47 404.413C1990.17 404.413 1988.27 389.713 1988.27 362.913C1988.27 336.113 2003.77 326.413 2041.67 318.913L2137.77 300.712V317.013L2137.87 317.113Z" fill="white"/>
<path d="M2581.48 462.312V242.413C2581.48 161.013 2536.58 112.312 2461.48 112.312C2386.38 112.312 2372.08 135.412 2354.58 179.112L2353.28 178.912L2351.48 120.512H2270.38V462.312H2358.38V270.613C2358.38 218.313 2385.88 187.013 2431.88 187.013C2477.88 187.013 2494.08 213.613 2494.08 270.613V462.312H2581.38H2581.48Z" fill="white"/>
<path d="M2942.17 254.913C2942.17 164.213 2884.87 112.312 2785.07 112.312C2685.27 112.312 2631.07 158.813 2622.07 240.013L2621.57 244.312H2710.17L2710.67 241.013C2716.87 200.213 2741.67 179.612 2784.37 179.612C2827.07 179.612 2855.97 203.312 2855.97 248.112V250.612L2735.27 272.613C2653.57 287.513 2617.17 319.113 2617.17 375.013C2617.17 430.913 2660.17 470.513 2732.17 470.513C2804.17 470.513 2836.97 447.613 2859.07 412.113L2860.97 462.413H2942.07V255.013L2942.17 254.913ZM2856.07 317.113C2856.07 369.313 2818.97 404.413 2763.67 404.413C2708.37 404.413 2706.47 389.713 2706.47 362.913C2706.47 336.113 2721.97 326.413 2759.87 318.913L2855.97 300.712V317.013L2856.07 317.113Z" fill="white"/>
<path d="M1218.57 745.016C1175.57 738.016 1134.97 731.416 1134.97 699.816C1134.97 668.216 1149.67 662.716 1190.87 662.716C1232.07 662.716 1255.77 681.416 1260.77 714.116L1261.27 717.416H1348.57L1348.07 713.016C1338.97 638.816 1283.57 598.016 1192.07 598.016C1100.57 598.016 1045.67 638.616 1045.67 706.716C1045.67 774.816 1108.67 796.016 1178.87 807.216H1179.27C1231.27 815.616 1265.57 821.116 1265.57 852.416C1265.57 883.716 1241.87 891.416 1202.07 891.416C1162.27 891.416 1130.87 872.416 1126.37 836.416L1125.97 833.016H1038.67L1038.97 837.216C1044.77 912.816 1104.47 956.216 1202.67 956.216C1300.87 956.216 1354.77 916.816 1354.77 848.116C1354.77 779.416 1279.17 754.816 1218.37 745.016H1218.57Z" fill="white"/>
<path d="M1587.37 597.914C1536.57 597.914 1494.57 621.014 1474.37 659.914L1472.87 659.614L1471.07 606.114H1389.97V1062.91H1475.47V896.314L1476.87 896.014C1497.57 934.314 1537.67 956.114 1587.27 956.114C1675.97 956.114 1735.57 884.114 1735.57 777.014C1735.57 669.914 1677.37 597.914 1587.27 597.914H1587.37ZM1562.87 883.914C1508.57 883.914 1476.17 844.214 1476.17 777.714C1476.17 711.214 1509.37 669.614 1562.87 669.614C1616.37 669.614 1646.47 709.014 1646.47 777.714C1646.47 846.414 1615.97 883.914 1562.87 883.914Z" fill="white"/>
<path d="M1929.87 597.914C1835.27 597.914 1775.87 644.414 1766.87 725.614L1766.37 729.914H1854.97L1855.47 726.614C1861.67 685.814 1886.47 665.214 1929.17 665.214C1971.87 665.214 2000.77 688.914 2000.77 733.714V736.214L1880.17 758.214C1798.47 773.114 1762.07 804.714 1762.07 860.614C1762.07 916.514 1805.07 956.114 1877.07 956.114C1949.07 956.114 1981.87 933.214 2003.97 897.714L2005.87 948.014H2086.97V740.614C2086.97 650.014 2029.67 598.014 1929.87 598.014V597.914ZM2000.87 802.814C2000.87 855.014 1963.77 890.114 1908.47 890.114C1853.17 890.114 1851.27 875.414 1851.27 848.614C1851.27 821.814 1866.77 812.114 1904.67 804.614L2000.77 786.414V802.714L2000.87 802.814Z" fill="white"/>
<path d="M2384.07 817.716C2373.77 859.816 2343.97 883.916 2302.47 883.916C2260.97 883.916 2213.87 842.716 2213.87 776.416C2213.87 710.116 2247.87 670.216 2302.47 670.216C2357.07 670.216 2371.97 692.516 2382.77 731.516L2383.57 734.316H2474.07L2473.17 729.716C2456.97 648.516 2391.27 598.016 2301.87 598.016C2212.47 598.016 2124.67 669.716 2124.67 776.516C2124.67 883.316 2195.87 956.216 2301.87 956.216C2407.87 956.216 2458.87 903.816 2473.97 819.416L2474.77 814.816H2384.87L2384.17 817.816L2384.07 817.716Z" fill="white"/>
<path d="M2679.48 597.914C2573.88 597.914 2502.88 669.614 2502.88 776.414C2502.88 883.214 2519.58 874.314 2551.08 906.614C2582.78 939.014 2627.17 956.214 2679.38 956.214C2761.97 956.214 2824.48 913.214 2846.38 841.214L2847.88 836.214H2755.48L2754.48 838.514C2741.18 869.414 2714.78 886.414 2680.08 886.414C2645.38 886.414 2599.78 854.014 2593.38 799.714H2850.98V773.314C2850.98 666.814 2783.68 598.014 2679.38 598.014L2679.48 597.914ZM2594.08 749.414C2601.88 697.514 2632.98 667.714 2679.58 667.714C2726.18 667.714 2756.78 698.214 2762.48 749.414H2594.08Z" fill="white"/>
<path d="M3054.57 745.016C3011.57 738.016 2970.97 731.416 2970.97 699.816C2970.97 668.216 2985.67 662.716 3026.87 662.716C3068.07 662.716 3091.77 681.416 3096.77 714.116L3097.27 717.416H3184.57L3184.07 713.016C3174.97 638.816 3119.57 598.016 3028.07 598.016C2936.57 598.016 2881.67 638.616 2881.67 706.716C2881.67 774.816 2944.67 796.016 3014.87 807.216H3015.27C3067.27 815.616 3101.57 821.116 3101.57 852.416C3101.57 883.716 3077.87 891.416 3038.07 891.416C2998.27 891.416 2966.87 872.416 2962.37 836.416L2961.97 833.016H2874.67L2874.97 837.216C2880.77 912.816 2940.47 956.216 3038.67 956.216C3136.87 956.216 3190.77 916.816 3190.77 848.116C3190.77 779.416 3115.17 754.816 3054.37 745.016H3054.57Z" fill="white"/>
<path d="M3000.87 192.612C3023.77 192.612 3041.27 174.913 3041.27 152.213C3041.27 129.513 3023.97 112.312 3001.17 112.312C2978.37 112.312 2960.27 129.913 2960.27 152.513C2960.27 175.113 2978.07 192.612 3000.87 192.612ZM3001.07 120.112C3019.47 120.112 3032.67 133.612 3032.67 152.112C3032.67 170.612 3019.17 184.812 3000.77 184.812C2982.37 184.812 2968.87 171.112 2968.87 152.412C2968.87 133.712 2982.47 120.112 3001.07 120.112Z" fill="white"/>
<path d="M3000.98 172.716C3011.38 172.716 3018.77 166.816 3020.27 156.516H3010.57C3009.67 161.816 3006.08 164.716 3000.98 164.716C2995.88 164.716 2990.77 160.016 2990.77 152.416C2990.77 144.816 2994.68 140.016 3000.88 140.016C3007.07 140.016 3009.28 142.816 3010.48 147.416H3020.07C3018.37 137.416 3011.17 132.016 3001.07 132.016C2990.97 132.016 2981.38 140.016 2981.38 152.416C2981.38 164.816 2989.07 172.816 3001.07 172.816L3000.98 172.716Z" fill="white"/>
<path d="M854.274 262.215H444.874C396.574 262.915 349.574 281.115 313.274 313.115C258.574 364.415 236.374 442.915 257.874 515.115C265.874 544.115 284.374 569.715 298.974 596.015C302.374 601.815 308.474 605.415 315.174 605.415H408.874C413.174 605.415 415.974 600.715 413.774 596.915L361.174 506.215C352.774 491.615 348.074 474.715 348.074 457.815C347.374 405.515 392.674 360.215 444.774 361.115H786.374C794.074 361.115 801.174 357.415 805.674 351.115L860.374 273.915C863.874 269.015 860.374 262.215 854.274 262.215Z" fill="#FF7370"/>
<path d="M604.973 547.816C596.973 518.816 578.473 493.216 563.873 466.916C560.473 461.116 554.373 457.516 547.673 457.516H453.973C449.673 457.516 446.873 462.216 449.073 466.016L501.673 556.716C510.073 571.316 514.773 588.216 514.773 605.116C515.473 657.416 470.173 702.716 418.073 701.816H76.4729C68.7729 701.816 61.6729 705.516 57.1729 711.816L2.47293 789.016C-1.02707 793.916 2.47303 800.716 8.57303 800.716H417.973C466.273 800.016 513.273 781.816 549.573 749.816C604.273 698.516 626.473 620.016 604.973 547.816Z" fill="#C258F4"/>
<path d="M855.474 64.4142C764.674 64.4142 673.974 64.4142 583.174 64.4142C491.874 64.4142 397.974 56.2142 310.674 87.9142C220.474 120.614 140.974 190.114 96.3739 275.114C51.8739 362.514 40.5737 457.614 63.1737 553.014C66.8737 567.614 71.2737 581.814 76.4737 595.714C78.6737 601.414 84.0738 605.214 90.2738 605.214H180.574C184.774 605.214 187.574 600.714 185.574 596.914C121.274 476.614 150.474 327.214 250.774 236.214C302.174 191.114 368.574 164.514 439.074 163.114H786.474C794.174 163.114 801.374 159.314 805.774 153.114L861.274 75.2142C861.674 74.7142 861.974 74.1142 862.174 73.5142C863.774 69.2142 860.674 64.1142 855.674 64.1142L855.474 64.4142Z" fill="#FFC674"/>
</svg>
